<svg xmlns="http://www.w3.org/2000/svg" width="805" height="600"><rect width="805" height="600" x="0" y="0" fill="#FFFFFF" id="background"/><g transform="translate(20,20)" id="viz"><g id="nodes"><g transform="translate(383.5,281)"><path id="p_943.5" d="M-5.143516556418883e-14,280A280,280,0,1,1,5.143516556418883e-14,-280A280,280,0,1,1,-5.143516556418883e-14,280Z" fill="none" stroke="#ccc"/></g><g transform="translate(287.39086859144254,295.76736695560896)" id="Taylor Swift"><path id="p_689.1999689616756" d="M-1.9663247430210562e-14,107.04173341462415A107.04173341462415,107.04173341462415,0,1,1,1.9663247430210562e-14,-107.04173341462415A107.04173341462415,107.04173341462415,0,1,1,-1.9663247430210562e-14,107.04173341462415Z" fill="#1f77b4" stroke="none"/></g><g transform="translate(502.0432270234954,295.76736695560896)" id="Lil Wayne"><path id="p_902.4542719642476" d="M-1.9406428814198892e-14,105.64367798514317A105.64367798514317,105.64367798514317,0,1,1,1.9406428814198892e-14,-105.64367798514317A105.64367798514317,105.64367798514317,0,1,1,-1.9406428814198892e-14,105.64367798514317Z" fill="#1f77b4" stroke="none"/></g><g transform="translate(396.0268033533679,465.8235623039623)" id="Lady Gaga"><path id="p_953.6358275881284" d="M-1.7044412844144088e-14,92.78546193079819A92.78546193079819,92.78546193079819,0,1,1,1.7044412844144088e-14,-92.78546193079819A92.78546193079819,92.78546193079819,0,1,1,-1.7044412844144088e-14,92.78546193079819Z" fill="#1f77b4" stroke="none"/></g><g transform="translate(395.8950169425322,150.19631074432934)" id="Britney Spears"><path id="p_617.6427822252035" d="M-1.3327485986079786e-14,72.551454538342A72.551454538342,72.551454538342,0,1,1,1.3327485986079786e-14,-72.551454538342A72.551454538342,72.551454538342,0,1,1,-1.3327485986079786e-14,72.551454538342Z" fill="#1f77b4" stroke="none"/></g><g transform="translate(253.99112384063898,119.1461112591071)" id="Justin Timberlake"><path id="p_442.8800801351753" d="M-1.2995249810282349e-14,70.74284503542926A70.74284503542926,70.74284503542926,0,1,1,1.2995249810282349e-14,-70.74284503542926A70.74284503542926,70.74284503542926,0,1,1,-1.2995249810282349e-14,70.74284503542926Z" fill="#1f77b4" stroke="none"/></g><g transform="translate(518.1171872519876,140.93469027105985)" id="Pharrell Williams"><path id="p_706.106052530317" d="M-8.82740874124791e-15,48.054175007269556A48.054175007269556,48.054175007269556,0,1,1,8.82740874124791e-15,-48.054175007269556A48.054175007269556,48.054175007269556,0,1,1,-8.82740874124791e-15,48.054175007269556Z" fill="#1f77b4" stroke="none"/></g><g transform="translate(261.83932665681994,443.81517298912814)" id="John Legend"><path id="p_745.8824131652733" d="M-7.573444849044813e-15,41.22791351932514A41.22791351932514,41.22791351932514,0,1,1,7.573444849044813e-15,-41.22791351932514A41.22791351932514,41.22791351932514,0,1,1,-7.573444849044813e-15,41.22791351932514Z" fill="#1f77b4" stroke="none"/></g><g transform="translate(526.2624186946504,439.4735346782936)" id="Paris Hilton"><path id="p_1002.8580696552813" d="M-7.0029191522831275e-15,38.12211628233726A38.12211628233726,38.12211628233726,0,1,1,7.0029191522831275e-15,-38.12211628233726A38.12211628233726,38.12211628233726,0,1,1,-7.0029191522831275e-15,38.12211628233726Z" fill="#1f77b4" stroke="none"/></g><g transform="translate(594.4513111322601,183.83163120862503)" id="Ray William Johnson"><path id="p_814.8234900568216" d="M-6.896086739783996e-15,37.540547715936384A37.540547715936384,37.540547715936384,0,1,1,6.896086739783996e-15,-37.540547715936384A37.540547715936384,37.540547715936384,0,1,1,-6.896086739783996e-15,37.540547715936384Z" fill="#1f77b4" stroke="none"/></g><g transform="translate(592.7380739850529,405.34833666190883)" id="Zac Efron"><path id="p_1031.7204487531571" d="M-6.36216958624498e-15,34.634038106195575A34.634038106195575,34.634038106195575,0,1,1,6.36216958624498e-15,-34.634038106195575A34.634038106195575,34.634038106195575,0,1,1,-6.36216958624498e-15,34.634038106195575Z" fill="#1f77b4" stroke="none"/></g><g transform="translate(196.86324070798346,404.71257330246027)" id="Kanye West"><path id="p_633.2156753709387" d="M-5.995845260961519e-15,32.639861360494905A32.639861360494905,32.639861360494905,0,1,1,5.995845260961519e-15,-32.639861360494905A32.639861360494905,32.639861360494905,0,1,1,-5.995845260961519e-15,32.639861360494905Z" fill="#1f77b4" stroke="none"/></g><g transform="translate(188.27029506272717,198.18668761799458)" id="Marc Anthony"><path id="p_415.5413540971306" d="M-5.526409373919777e-15,30.084371416408818A30.084371416408818,30.084371416408818,0,1,1,5.526409373919777e-15,-30.084371416408818A30.084371416408818,30.084371416408818,0,1,1,-5.526409373919777e-15,30.084371416408818Z" fill="#1f77b4" stroke="none"/></g><g transform="translate(470.0024414388619,80.6406359657515)" id="B.o.B"><path id="p_576.7608025772976" d="M-4.981445299932777e-15,27.117725172684096A27.117725172684096,27.117725172684096,0,1,1,4.981445299932777e-15,-27.117725172684096A27.117725172684096,27.117725172684096,0,1,1,-4.981445299932777e-15,27.117725172684096Z" fill="#1f77b4" stroke="none"/></g><g transform="translate(338.2346541074442,68.13767148351772)" id="Lindsay Lohan"><path id="p_431.1451884435633" d="M-4.734398099595294e-15,25.772862852601346A25.772862852601346,25.772862852601346,0,1,1,4.734398099595294e-15,-25.772862852601346A25.772862852601346,25.772862852601346,0,1,1,-4.734398099595294e-15,25.772862852601346Z" fill="#1f77b4" stroke="none"/></g><g transform="translate(506.7653909500088,496.46808686813466)" id="Cher"><path id="p_1022.3815547925138" d="M-3.701141696345579e-15,20.148076974370394A20.148076974370394,20.148076974370394,0,1,1,3.701141696345579e-15,-20.148076974370394A20.148076974370394,20.148076974370394,0,1,1,-3.701141696345579e-15,20.148076974370394Z" fill="#1f77b4" stroke="none"/></g><g transform="translate(288.1416411364943,499.2978409361465)" id="Selena"><path id="p_804.6460725584998" d="M-3.344496414284086e-15,18.206590485859024A18.206590485859024,18.206590485859024,0,1,1,3.344496414284086e-15,-18.206590485859024A18.206590485859024,18.206590485859024,0,1,1,-3.344496414284086e-15,18.206590485859024Z" fill="#1f77b4" stroke="none"/></g><g transform="translate(612.9388136296889,237.787141601317)" id="Chris Jericho"><path id="p_867.2534045988987" d="M-3.2197402148410888e-15,17.527449367892835A17.527449367892835,17.527449367892835,0,1,1,3.2197402148410888e-15,-17.527449367892835A17.527449367892835,17.527449367892835,0,1,1,-3.2197402148410888e-15,17.527449367892835Z" fill="#1f77b4" stroke="none"/></g><g transform="translate(611.4304877614661,355.2270326025077)" id="Dave Grohl"><path id="p_982.5500063542538" d="M-3.1030993346456693e-15,16.89248599027991A16.89248599027991,16.89248599027991,0,1,1,3.1030993346456693e-15,-16.89248599027991A16.89248599027991,16.89248599027991,0,1,1,-3.1030993346456693e-15,16.89248599027991Z" fill="#1f77b4" stroke="none"/></g><g transform="translate(177.82592373788117,357.1817942354292)" id="James Maslow"><path id="p_550.6024173331251" d="M-3.0483968180714688e-15,16.594699359814772A16.594699359814772,16.594699359814772,0,1,1,3.0483968180714688e-15,-16.594699359814772A16.594699359814772,16.594699359814772,0,1,1,-3.0483968180714688e-15,16.594699359814772Z" fill="#1f77b4" stroke="none"/></g><g transform="translate(175.27952075585392,243.21143981255182)" id="Logan Henderson"><path id="p_432.30101776398163" d="M-2.72056337096269e-15,14.810057195575913A14.810057195575913,14.810057195575913,0,1,1,2.72056337096269e-15,-14.810057195575913A14.810057195575913,14.810057195575913,0,1,1,-2.72056337096269e-15,14.810057195575913Z" fill="#1f77b4" stroke="none"/></g><g transform="translate(428.47819849715415,67.3346029542619)" id="Rebecca Black"><path id="p_509.3321802782579" d="M-2.6671666208849612e-15,14.519378826841866A14.519378826841866,14.519378826841866,0,1,1,2.6671666208849612e-15,-14.519378826841866A14.519378826841866,14.519378826841866,0,1,1,-2.6671666208849612e-15,14.519378826841866Z" fill="#1f77b4" stroke="none"/></g><g transform="translate(167.87379847132223,325.9139562188451)" id="Carlos PenaVega"><path id="p_507.03955815559686" d="M-2.6180138244023123e-15,14.251803465429518A14.251803465429518,14.251803465429518,0,1,1,2.6180138244023123e-15,-14.251803465429518A14.251803465429518,14.251803465429518,0,1,1,-2.6180138244023123e-15,14.251803465429518Z" fill="#1f77b4" stroke="none"/></g><g transform="translate(618.1482680683424,324.9894814405055)" id="Mike Shinoda"><path id="p_954.2531138629589" d="M-2.225556326514888e-15,12.115364354110955A12.115364354110955,12.115364354110955,0,1,1,2.225556326514888e-15,-12.115364354110955A12.115364354110955,12.115364354110955,0,1,1,-2.225556326514888e-15,12.115364354110955Z" fill="#1f77b4" stroke="none"/></g><g transform="translate(618.560602756604,268.76932018455386)" id="N.O.R.E."><path id="p_898.3236179844298" d="M-2.2032060367038604e-15,11.993695043271897A11.993695043271897,11.993695043271897,0,1,1,2.2032060367038604e-15,-11.993695043271897A11.993695043271897,11.993695043271897,0,1,1,-2.2032060367038604e-15,11.993695043271897Z" fill="#1f77b4" stroke="none"/></g><g transform="translate(576.6333774597462,450.6897032698896)" id="Whoopi Goldberg"><path id="p_1037.8386288832733" d="M-2.1153718780168817e-15,11.515548153637365A11.515548153637365,11.515548153637365,0,1,1,2.1153718780168817e-15,-11.515548153637365A11.515548153637365,11.515548153637365,0,1,1,-2.1153718780168817e-15,11.515548153637365Z" fill="#1f77b4" stroke="none"/></g><g transform="translate(169.57802016812013,270.82205263119)" id="Tay Zonday"><path id="p_450.81620690638186" d="M-2.0971098139293464e-15,11.416134107071722A11.416134107071722,11.416134107071722,0,1,1,2.0971098139293464e-15,-11.416134107071722A11.416134107071722,11.416134107071722,0,1,1,-2.0971098139293464e-15,11.416134107071722Z" fill="#1f77b4" stroke="none"/></g><g transform="translate(376.79233757671403,67.0086411803617)" id="Eric Clapton"><path id="p_453.6353787013202" d="M-1.9902469818601747e-15,10.8343999442444A10.8343999442444,10.8343999442444,0,1,1,1.9902469818601747e-15,-10.8343999442444A10.8343999442444,10.8343999442444,0,1,1,-1.9902469818601747e-15,10.8343999442444Z" fill="#1f77b4" stroke="none"/></g><g transform="translate(208.40303124907106,448.2399884897892)" id="Axl Rose"><path id="p_666.0673410079293" d="M-1.9149167513173387e-15,10.424321269068919A10.424321269068919,10.424321269068919,0,1,1,1.9149167513173387e-15,-10.424321269068919A10.424321269068919,10.424321269068919,0,1,1,-1.9149167513173387e-15,10.424321269068919Z" fill="#1f77b4" stroke="none"/></g><g transform="translate(577.9078645270224,137.297250301665)" id="Aaliyah"><path id="p_724.0852119631885" d="M-1.814944399654741e-15,9.880097134501018A9.880097134501018,9.880097134501018,0,1,1,1.814944399654741e-15,-9.880097134501018A9.880097134501018,9.880097134501018,0,1,1,-1.814944399654741e-15,9.880097134501018Z" fill="#1f77b4" stroke="none"/></g><g transform="translate(168.79843878119527,300.0506534798037)" id="Fred Durst"><path id="p_477.5101676567082" d="M-1.7747107589514775e-15,9.661075395709197A9.661075395709197,9.661075395709197,0,1,1,1.7747107589514775e-15,-9.661075395709197A9.661075395709197,9.661075395709197,0,1,1,-1.7747107589514775e-15,9.661075395709197Z" fill="#1f77b4" stroke="none"/></g><g transform="translate(618.6835072647037,301.7313012868407)" id="Chord Overstreet"><path id="p_928.5968352184357" d="M-1.6867109350940969e-15,9.182026666891225A9.182026666891225,9.182026666891225,0,1,1,1.6867109350940969e-15,-9.182026666891225A9.182026666891225,9.182026666891225,0,1,1,-1.6867109350940969e-15,9.182026666891225Z" fill="#1f77b4" stroke="none"/></g><g transform="translate(631.8793265338476,287.00733953348436)" id="Melissa Benoist"><path id="p_926.5095080636903" d="M-1.5839903775590512e-15,8.62284199635839A8.62284199635839,8.62284199635839,0,1,1,1.5839903775590512e-15,-8.62284199635839A8.62284199635839,8.62284199635839,0,1,1,-1.5839903775590512e-15,8.62284199635839Z" fill="#1f77b4" stroke="none"/></g><g transform="translate(155.23661070542357,286.27757385959814)" id="Moby"><path id="p_448.2154379377732" d="M-1.4146972938544268e-15,7.70125337275147A7.70125337275147,7.70125337275147,0,1,1,1.4146972938544268e-15,-7.70125337275147A7.70125337275147,7.70125337275147,0,1,1,-1.4146972938544268e-15,7.70125337275147Z" fill="#1f77b4" stroke="none"/></g><g transform="translate(506.5066007280667,84.4747377335909)" id="Aloe Blacc"><path id="p_597.6016248015194" d="M-1.399823891204698e-15,7.620286339861746A7.620286339861746,7.620286339861746,0,1,1,1.399823891204698e-15,-7.620286339861746A7.620286339861746,7.620286339861746,0,1,1,-1.399823891204698e-15,7.620286339861746Z" fill="#1f77b4" stroke="none"/></g><g transform="translate(484.8975959517029,516.5591469795681)" id="LL Cool J"><path id="p_1008.0376976841908" d="M-1.392598795896617e-15,7.580954752919773A7.580954752919773,7.580954752919773,0,1,1,1.392598795896617e-15,-7.580954752919773A7.580954752919773,7.580954752919773,0,1,1,-1.392598795896617e-15,7.580954752919773Z" fill="#1f77b4" stroke="none"/></g><g transform="translate(404.78926527053653,68.90823268384915)" id="Maya Angelou"><path id="p_479.95231503196186" d="M-1.332688276867986e-15,7.2548170775761935A7.2548170775761935,7.2548170775761935,0,1,1,1.332688276867986e-15,-7.2548170775761935A7.2548170775761935,7.2548170775761935,0,1,1,-1.332688276867986e-15,7.2548170775761935Z" fill="#1f77b4" stroke="none"/></g><g transform="translate(308.3133540580316,517.835765966986)" id="Beck"><path id="p_832.3717987901107" d="M-1.3267845646411405e-15,7.222678765093193A7.222678765093193,7.222678765093193,0,1,1,1.3267845646411405e-15,-7.222678765093193A7.222678765093193,7.222678765093193,0,1,1,-1.3267845646411405e-15,7.222678765093193Z" fill="#1f77b4" stroke="none"/></g><g transform="translate(534.0413554420095,486.013012691625)" id="Jamie Lynn Spears"><path id="p_1026.1504176266842" d="M-1.3035231447381752e-15,7.096049493049691A7.096049493049691,7.096049493049691,0,1,1,1.3035231447381752e-15,-7.096049493049691A7.096049493049691,7.096049493049691,0,1,1,-1.3035231447381752e-15,7.096049493049691Z" fill="#1f77b4" stroke="none"/></g><g transform="translate(393.8449939797852,56.914031101485534)" id="Noah Cyrus"><path id="p_456.77419250676814" d="M-1.2886653499677203e-15,7.015167425497373A7.015167425497373,7.015167425497373,0,1,1,1.2886653499677203e-15,-7.015167425497373A7.015167425497373,7.015167425497373,0,1,1,-1.2886653499677203e-15,7.015167425497373Z" fill="#1f77b4" stroke="none"/></g><g transform="translate(261.538077914462,493.9678333116133)" id="Ariel Winter"><path id="p_761.4646157344617" d="M-1.2782932803611438e-15,6.958704508386371A6.958704508386371,6.958704508386371,0,1,1,1.2782932803611438e-15,-6.958704508386371A6.958704508386371,6.958704508386371,0,1,1,-1.2782932803611438e-15,6.958704508386371Z" fill="#1f77b4" stroke="none"/></g><g transform="translate(186.24329701663194,159.8588770357218)" id="John Barrowman"><path id="p_351.4322284961115" d="M-1.1628121369464652e-15,6.330054443757772A6.330054443757772,6.330054443757772,0,1,1,1.1628121369464652e-15,-6.330054443757772A6.330054443757772,6.330054443757772,0,1,1,-1.1628121369464652e-15,6.330054443757772Z" fill="#1f77b4" stroke="none"/></g><g transform="translate(165.39033671183773,378.6554628984332)" id="Trace Cyrus"><path id="p_549.2987108513581" d="M-1.1486411605124824e-15,6.25291124108715A6.25291124108715,6.25291124108715,0,1,1,1.1486411605124824e-15,-6.25291124108715A6.25291124108715,6.25291124108715,0,1,1,-1.1486411605124824e-15,6.25291124108715Z" fill="#1f77b4" stroke="none"/></g><g transform="translate(624.4114030871795,376.6176144635348)" id="Eddie Murphy"><path id="p_1006.1907986283207" d="M-1.1319008210606233e-15,6.161781077606467A6.161781077606467,6.161781077606467,0,1,1,1.1319008210606233e-15,-6.161781077606467A6.161781077606467,6.161781077606467,0,1,1,-1.1319008210606233e-15,6.161781077606467Z" fill="#1f77b4" stroke="none"/></g><g transform="translate(162.52662316000146,225.21809306098888)" id="Lionel Richie"><path id="p_392.02212026930533" d="M-9.694433963364389e-16,5.277404048315009A5.277404048315009,5.277404048315009,0,1,1,9.694433963364389e-16,-5.277404048315009A5.277404048315009,5.277404048315009,0,1,1,-9.694433963364389e-16,5.277404048315009Z" fill="#1f77b4" stroke="none"/></g><g transform="translate(158.11076156394773,256.5218722760236)" id="Jacob Artist"><path id="p_418.57966939651254" d="M-9.087556889379473e-16,4.947035556541192A4.947035556541192,4.947035556541192,0,1,1,9.087556889379473e-16,-4.947035556541192A4.947035556541192,4.947035556541192,0,1,1,-9.087556889379473e-16,4.947035556541192Z" fill="#1f77b4" stroke="none"/></g><g transform="translate(630.2645843555417,311.5344455718553)" id="Ryan Newman"><path id="p_944.8231569151843" d="M-7.392201352434344e-16,4.0241269877873265A4.0241269877873265,4.0241269877873265,0,1,1,7.392201352434344e-16,-4.0241269877873265A4.0241269877873265,4.0241269877873265,0,1,1,-7.392201352434344e-16,4.0241269877873265Z" fill="#1f77b4" stroke="none"/></g><g transform="translate(628.1662625216096,339.8689007037715)" id="Jackie Jackson"><path id="p_970.8904472875877" d="M-7.082041929877661e-16,3.8552840622065916A3.8552840622065916,3.8552840622065916,0,1,1,7.082041929877661e-16,-3.8552840622065916A3.8552840622065916,3.8552840622065916,0,1,1,-7.082041929877661e-16,3.8552840622065916Z" fill="#1f77b4" stroke="none"/></g><g transform="translate(628.3245093225331,254.5687681430561)" id="John Lee Hooker"><path id="p_885.1660201333572" d="M-6.011930748772523e-16,3.272742667767971A3.272742667767971,3.272742667767971,0,1,1,6.011930748772523e-16,-3.272742667767971A3.272742667767971,3.272742667767971,0,1,1,-6.011930748772523e-16,3.272742667767971Z" fill="#1f77b4" stroke="none"/></g><g transform="translate(621.1139180418214,216.87937270061607)" id="Wes Borland"><path id="p_839.9481066347737" d="M-5.427908736928855e-16,2.954815892336183A2.954815892336183,2.954815892336183,0,1,1,5.427908736928855e-16,-2.954815892336183A2.954815892336183,2.954815892336183,0,1,1,-5.427908736928855e-16,2.954815892336183Z" fill="#1f77b4" stroke="none"/></g><g transform="translate(161.59793162145132,343.6329339719041)" id="Marcus Mumford"><path id="p_506.80968614433465" d="M-4.737216499998235e-16,2.5788205509792537A2.5788205509792537,2.5788205509792537,0,1,1,4.737216499998235e-16,-2.5788205509792537A2.5788205509792537,2.5788205509792537,0,1,1,-4.737216499998235e-16,2.5788205509792537Z" fill="#1f77b4" stroke="none"/></g><g transform="translate(158.483373721171,309.71380703264504)" id="Savannah Outen"><path id="p_469.7034111811485" d="M-4.60387060613762e-16,2.5062304273324707A2.5062304273324707,2.5062304273324707,0,1,1,4.60387060613762e-16,-2.5062304273324707A2.5062304273324707,2.5062304273324707,0,1,1,-4.60387060613762e-16,2.5062304273324707Z" fill="#1f77b4" stroke="none"/></g><g transform="translate(308.08491935665666,66.99147815438184)" id="Sharon Van Etten"><path id="p_376.50810175273483" d="M-4.466968224099605e-16,2.4317042416962904A2.4317042416962904,2.4317042416962904,0,1,1,4.466968224099605e-16,-2.4317042416962904A2.4317042416962904,2.4317042416962904,0,1,1,-4.466968224099605e-16,2.4317042416962904Z" fill="#1f77b4" stroke="none"/></g><g transform="translate(411.4613219799855,59.66222948203796)" id="James Euringer"><path id="p_472.3037571794331" d="M-4.004972929962693e-16,2.18020571740963A2.18020571740963,2.18020571740963,0,1,1,4.004972929962693e-16,-2.18020571740963A2.18020571740963,2.18020571740963,0,1,1,-4.004972929962693e-16,2.18020571740963Z" fill="#1f77b4" stroke="none"/></g><g transform="translate(563.5582469681774,458.98741625737347)" id="Beth Ditto"><path id="p_1023.5490027989883" d="M-3.6800750943229516e-16,2.003339573437372A2.003339573437372,2.003339573437372,0,1,1,3.6800750943229516e-16,-2.003339573437372A2.003339573437372,2.003339573437372,0,1,1,-3.6800750943229516e-16,2.003339573437372Z" fill="#1f77b4" stroke="none"/></g><g transform="translate(541.8738683162911,478.4052465793296)" id="J.J. Cale"><path id="p_1021.1352008933357" d="M-3.4095746640656846e-16,1.8560859977149131A1.8560859977149131,1.8560859977149131,0,1,1,3.4095746640656846e-16,-1.8560859977149131A1.8560859977149131,1.8560859977149131,0,1,1,-3.4095746640656846e-16,1.8560859977149131Z" fill="#1f77b4" stroke="none"/></g><g transform="translate(445.6259490432503,62.41116288256964)" id="DJ Laz"><path id="p_508.39134690234687" d="M-2.487689293945783e-16,1.3542349765270059A1.3542349765270059,1.3542349765270059,0,1,1,2.487689293945783e-16,-1.3542349765270059A1.3542349765270059,1.3542349765270059,0,1,1,-2.487689293945783e-16,1.3542349765270059Z" fill="#1f77b4" stroke="none"/></g><g transform="translate(365.5668882233203,58.65735985703404)" id="Amanda Somerville"><path id="p_424.4141345350473" d="M-2.185785957132889e-16,1.1898864546930148A1.1898864546930148,1.1898864546930148,0,1,1,2.185785957132889e-16,-1.1898864546930148A1.1898864546930148,1.1898864546930148,0,1,1,-2.185785957132889e-16,1.1898864546930148Z" fill="#1f77b4" stroke="none"/></g><g transform="translate(219.33974716992097,455.9939457834787)" id="Victoria Jackson"><path id="p_675.3489756196034" d="M-1.8650440010942388e-16,1.015282666203706A1.015282666203706,1.015282666203706,0,1,1,1.8650440010942388e-16,-1.015282666203706A1.015282666203706,1.015282666203706,0,1,1,-1.8650440010942388e-16,1.015282666203706Z" fill="#1f77b4" stroke="none"/></g><g transform="translate(630.3662249565311,298.4764318616864)" id="Anna Margaret"><path id="p_928.8213402564166" d="M-1.7978123099533683e-16,0.9786834381989841A0.9786834381989841,0.9786834381989841,0,1,1,1.7978123099533683e-16,-0.9786834381989841A0.9786834381989841,0.9786834381989841,0,1,1,-1.7978123099533683e-16,0.9786834381989841Z" fill="#1f77b4" stroke="none"/></g><g transform="translate(317.7411595588629,520.0944001026204)" id="Stan Ridgway"><path id="p_837.3405171310717" d="M-9.275918232554785e-17,0.5049574695884038A0.5049574695884038,0.5049574695884038,0,1,1,9.275918232554785e-17,-0.5049574695884038A0.5049574695884038,0.5049574695884038,0,1,1,-9.275918232554785e-17,0.5049574695884038Z" fill="#1f77b4" stroke="none"/></g><g transform="translate(255.2356272635959,486.98710516527166)" id="Candye Kane"><path id="p_741.7019439738407" d="M-8.802973269988163e-17,0.47921154497319207A0.47921154497319207,0.47921154497319207,0,1,1,8.802973269988163e-17,-0.47921154497319207A0.47921154497319207,0.47921154497319207,0,1,1,-8.802973269988163e-17,0.47921154497319207Z" fill="#1f77b4" stroke="none"/></g></g><g id="labels"><g transform="translate(287.39086859144254,295.76736695560896)"><text text-anchor="middle" dominant-baseline="text-before-edge" transform="translate(0,-5.6666669845581055)"><tspan x="0" y="0" dy="0" style="font-family: Arial, sans-serif; font-size: 10px; fill: black; font-weight: bold;">West Reading</tspan></text></g><g transform="translate(502.0432270234954,295.76736695560896)"><text text-anchor="middle" dominant-baseline="text-before-edge" transform="translate(0,-5.6666669845581055)"><tspan x="0" y="0" dy="0" style="font-family: Arial, sans-serif; font-size: 10px; fill: black; font-weight: bold;">New Orleans</tspan></text></g><g transform="translate(396.0268033533679,465.8235623039623)"><text text-anchor="middle" dominant-baseline="text-before-edge" transform="translate(0,-5.6666669845581055)"><tspan x="0" y="0" dy="0" style="font-family: Arial, sans-serif; font-size: 10px; fill: black; font-weight: bold;">Lenox Hill Hospital</tspan></text></g><g transform="translate(395.8950169425322,150.19631074432934)"><text text-anchor="middle" dominant-baseline="text-before-edge" transform="translate(0,-5.6666669845581055)"><tspan x="0" y="0" dy="0" style="font-family: Arial, sans-serif; font-size: 10px; fill: black; font-weight: bold;">McComb</tspan></text></g><g transform="translate(253.99112384063898,119.1461112591071)"><text text-anchor="middle" dominant-baseline="text-before-edge" transform="translate(0,-5.6666669845581055)"><tspan x="0" y="0" dy="0" style="font-family: Arial, sans-serif; font-size: 10px; fill: black; font-weight: bold;">Memphis</tspan></text></g><g transform="translate(518.1171872519876,140.93469027105985)"><text text-anchor="middle" dominant-baseline="text-before-edge" transform="translate(0,-5.6666669845581055)"><tspan x="0" y="0" dy="0" style="font-family: Arial, sans-serif; font-size: 10px; fill: black; font-weight: bold;">Virginia Beach</tspan></text></g><g transform="translate(261.83932665681994,443.81517298912814)"><text text-anchor="middle" dominant-baseline="text-before-edge" transform="translate(0,-5.6666669845581055)"><tspan x="0" y="0" dy="0" style="font-family: Arial, sans-serif; font-size: 10px; fill: black; font-weight: bold;">Springfield</tspan></text></g><g transform="translate(526.2624186946504,439.4735346782936)"><text text-anchor="middle" dominant-baseline="text-before-edge" transform="translate(0,-5.6666669845581055)"><tspan x="0" y="0" dy="0" style="font-family: Arial, sans-serif; font-size: 10px; fill: black; font-weight: bold;">New York City</tspan></text></g><g transform="translate(594.4513111322601,183.83163120862503)"><text text-anchor="middle" dominant-baseline="text-before-edge" transform="translate(0,-5.6666669845581055)"><tspan x="0" y="0" dy="0" style="font-family: Arial, sans-serif; font-size: 10px; fill: black; font-weight: bold;">Oklahoma City</tspan></text></g><g transform="translate(592.7380739850529,405.34833666190883)"><text text-anchor="middle" dominant-baseline="text-before-edge" transform="translate(0,-5.6666669845581055)"><tspan x="0" y="0" dy="0" style="font-family: Arial, sans-serif; font-size: 10px; fill: black; font-weight: bold;">San Luis Obispo</tspan></text></g><g transform="translate(196.86324070798346,404.71257330246027)"><text text-anchor="middle" dominant-baseline="text-before-edge" transform="translate(0,-5.6666669845581055)"><tspan x="0" y="0" dy="0" style="font-family: Arial, sans-serif; font-size: 10px; fill: black; font-weight: bold;">Atlanta</tspan></text></g><g transform="translate(188.27029506272717,198.18668761799458)"><text text-anchor="middle" dominant-baseline="text-before-edge" transform="translate(0,-5.6666669845581055)"><tspan x="0" y="0" dy="0" style="font-family: Arial, sans-serif; font-size: 10px; fill: black; font-weight: bold;">New York City</tspan></text></g><g transform="translate(470.0024414388619,80.6406359657515)"><text text-anchor="middle" dominant-baseline="text-before-edge" transform="translate(0,-5.6666669845581055)"><tspan x="0" y="0" dy="0" style="font-family: Arial, sans-serif; font-size: 10px; fill: black; font-weight: bold;">Winston-Salem</tspan></text></g><g transform="translate(338.2346541074442,68.13767148351772)"><text text-anchor="middle" dominant-baseline="text-before-edge" transform="translate(0,-5.6666669845581055)"><tspan x="0" y="0" dy="0" style="font-family: Arial, sans-serif; font-size: 10px; fill: black; font-weight: bold;">The Bronx</tspan></text></g><g transform="translate(506.7653909500088,496.46808686813466)"><text text-anchor="middle" dominant-baseline="text-before-edge" transform="translate(0,-5.6666669845581055)"><tspan x="0" y="0" dy="0" style="font-family: Arial, sans-serif; font-size: 10px; fill: black; font-weight: bold;">El Centro</tspan></text></g><g transform="translate(288.1416411364943,499.2978409361465)"><text text-anchor="middle" dominant-baseline="text-before-edge" transform="translate(0,-5.6666669845581055)"><tspan x="0" y="0" dy="0" style="font-family: Arial, sans-serif; font-size: 10px; fill: black; font-weight: bold;">Lake Jackson</tspan></text></g><g transform="translate(612.9388136296889,237.787141601317)"><text text-anchor="middle" dominant-baseline="text-before-edge" transform="translate(0,-5.6666669845581055)"><tspan x="0" y="0" dy="0" style="font-family: Arial, sans-serif; font-size: 10px; fill: black; font-weight: bold;">Manhasset</tspan></text></g><g transform="translate(611.4304877614661,355.2270326025077)"><text text-anchor="middle" dominant-baseline="text-before-edge" transform="translate(0,-5.6666669845581055)"><tspan x="0" y="0" dy="0" style="font-family: Arial, sans-serif; font-size: 10px; fill: black; font-weight: bold;">Warren</tspan></text></g><g transform="translate(177.82592373788117,357.1817942354292)"><text text-anchor="middle" dominant-baseline="text-before-edge" transform="translate(0,-5.6666669845581055)"><tspan x="0" y="0" dy="0" style="font-family: Arial, sans-serif; font-size: 10px; fill: black; font-weight: bold;">New York City</tspan></text></g><g transform="translate(175.27952075585392,243.21143981255182)"><text text-anchor="middle" dominant-baseline="text-before-edge" transform="translate(0,-5.6666669845581055)"><tspan x="0" y="0" dy="0" style="font-family: Arial, sans-serif; font-size: 10px; fill: black; font-weight: bold;">North Richland Hills</tspan></text></g><g transform="translate(428.47819849715415,67.3346029542619)"><text text-anchor="middle" dominant-baseline="text-before-edge" transform="translate(0,-5.6666669845581055)"><tspan x="0" y="0" dy="0" style="font-family: Arial, sans-serif; font-size: 10px; fill: black; font-weight: bold;">Irvine</tspan></text></g><g transform="translate(167.87379847132223,325.9139562188451)"><text text-anchor="middle" dominant-baseline="text-before-edge" transform="translate(0,-5.6666669845581055)"><tspan x="0" y="0" dy="0" style="font-family: Arial, sans-serif; font-size: 10px; fill: black; font-weight: bold;">Columbia</tspan></text></g><g transform="translate(618.1482680683424,324.9894814405055)"><text text-anchor="middle" dominant-baseline="text-before-edge" transform="translate(0,-5.6666669845581055)"><tspan x="0" y="0" dy="0" style="font-family: Arial, sans-serif; font-size: 10px; fill: black; font-weight: bold;">Panorama City</tspan></text></g><g transform="translate(618.560602756604,268.76932018455386)"><text text-anchor="middle" dominant-baseline="text-before-edge" transform="translate(0,-5.6666669845581055)"><tspan x="0" y="0" dy="0" style="font-family: Arial, sans-serif; font-size: 10px; fill: black; font-weight: bold;">Queens</tspan></text></g><g transform="translate(576.6333774597462,450.6897032698896)"><text text-anchor="middle" dominant-baseline="text-before-edge" transform="translate(0,-5.6666669845581055)"><tspan x="0" y="0" dy="0" style="font-family: Arial, sans-serif; font-size: 10px; fill: black; font-weight: bold;">New York City</tspan></text></g><g transform="translate(169.57802016812013,270.82205263119)"><text text-anchor="middle" dominant-baseline="text-before-edge" transform="translate(0,-5.6666669845581055)"><tspan x="0" y="0" dy="0" style="font-family: Arial, sans-serif; font-size: 10px; fill: black; font-weight: bold;">Minneapolis</tspan></text></g><g transform="translate(376.79233757671403,67.0086411803617)"><text text-anchor="middle" dominant-baseline="text-before-edge" transform="translate(0,-5.6666669845581055)"><tspan x="0" y="0" dy="0" style="font-family: Arial, sans-serif; font-size: 10px; fill: black; font-weight: bold;">Ripley</tspan></text></g><g transform="translate(208.40303124907106,448.2399884897892)"><text text-anchor="middle" dominant-baseline="text-before-edge" transform="translate(0,-5.6666669845581055)"><tspan x="0" y="0" dy="0" style="font-family: Arial, sans-serif; font-size: 10px; fill: black; font-weight: bold;">Lafayette</tspan></text></g><g transform="translate(577.9078645270224,137.297250301665)"><text text-anchor="middle" dominant-baseline="text-before-edge" transform="translate(0,-5.6666669845581055)"><tspan x="0" y="0" dy="0" style="font-family: Arial, sans-serif; font-size: 10px; fill: black; font-weight: bold;">Brooklyn</tspan></text></g><g transform="translate(168.79843878119527,300.0506534798037)"><text text-anchor="middle" dominant-baseline="text-before-edge" transform="translate(0,-5.6666669845581055)"><tspan x="0" y="0" dy="0" style="font-family: Arial, sans-serif; font-size: 10px; fill: black; font-weight: bold;">Jacksonville</tspan></text></g><g transform="translate(618.6835072647037,301.7313012868407)"><text text-anchor="middle" dominant-baseline="text-before-edge" transform="translate(0,-5.6666669845581055)"><tspan x="0" y="0" dy="0" style="font-family: Arial, sans-serif; font-size: 10px; fill: black; font-weight: bold;">Nashville</tspan></text></g><g transform="translate(631.8793265338476,287.00733953348436)"><text text-anchor="middle" dominant-baseline="text-before-edge" transform="translate(0,-5.6666669845581055)"><tspan x="0" y="0" dy="0" style="font-family: Arial, sans-serif; font-size: 10px; fill: black; font-weight: bold;">Houston</tspan></text></g><g transform="translate(155.23661070542357,286.27757385959814)"><text text-anchor="middle" dominant-baseline="text-before-edge" transform="translate(0,-5.6666669845581055)"><tspan x="0" y="0" dy="0" style="font-family: Arial, sans-serif; font-size: 10px; fill: black; font-weight: bold;">Harlem</tspan></text></g><g transform="translate(506.5066007280667,84.4747377335909)"><text text-anchor="middle" dominant-baseline="text-before-edge" transform="translate(0,-5.6666669845581055)"><tspan x="0" y="0" dy="0" style="font-family: Arial, sans-serif; font-size: 10px; fill: black; font-weight: bold;">Newport Beach</tspan></text></g><g transform="translate(484.8975959517029,516.5591469795681)"><text text-anchor="middle" dominant-baseline="text-before-edge" transform="translate(0,-5.6666669845581055)"><tspan x="0" y="0" dy="0" style="font-family: Arial, sans-serif; font-size: 10px; fill: black; font-weight: bold;">Queens</tspan></text></g><g transform="translate(404.78926527053653,68.90823268384915)"><text text-anchor="middle" dominant-baseline="text-before-edge" transform="translate(0,-5.6666669845581055)"><tspan x="0" y="0" dy="0" style="font-family: Arial, sans-serif; font-size: 10px; fill: black; font-weight: bold;">St. Louis</tspan></text></g><g transform="translate(308.3133540580316,517.835765966986)"><text text-anchor="middle" dominant-baseline="text-before-edge" transform="translate(0,-5.6666669845581055)"><tspan x="0" y="0" dy="0" style="font-family: Arial, sans-serif; font-size: 10px; fill: black; font-weight: bold;">Los Angeles</tspan></text></g><g transform="translate(534.0413554420095,486.013012691625)"><text text-anchor="middle" dominant-baseline="text-before-edge" transform="translate(0,-5.6666669845581055)"><tspan x="0" y="0" dy="0" style="font-family: Arial, sans-serif; font-size: 10px; fill: black; font-weight: bold;">McComb</tspan></text></g><g transform="translate(393.8449939797852,56.914031101485534)"><text text-anchor="middle" dominant-baseline="text-before-edge" transform="translate(0,-5.6666669845581055)"><tspan x="0" y="0" dy="0" style="font-family: Arial, sans-serif; font-size: 10px; fill: black; font-weight: bold;">Nashville</tspan></text></g><g transform="translate(261.538077914462,493.9678333116133)"><text text-anchor="middle" dominant-baseline="text-before-edge" transform="translate(0,-5.6666669845581055)"><tspan x="0" y="0" dy="0" style="font-family: Arial, sans-serif; font-size: 10px; fill: black; font-weight: bold;">Fairfax</tspan></text></g><g transform="translate(186.24329701663194,159.8588770357218)"><text text-anchor="middle" dominant-baseline="text-before-edge" transform="translate(0,-5.6666669845581055)"><tspan x="0" y="0" dy="0" style="font-family: Arial, sans-serif; font-size: 10px; fill: black; font-weight: bold;">Glasgow</tspan></text></g><g transform="translate(165.39033671183773,378.6554628984332)"><text text-anchor="middle" dominant-baseline="text-before-edge" transform="translate(0,-5.6666669845581055)"><tspan x="0" y="0" dy="0" style="font-family: Arial, sans-serif; font-size: 10px; fill: black; font-weight: bold;">Ashland</tspan></text></g><g transform="translate(624.4114030871795,376.6176144635348)"><text text-anchor="middle" dominant-baseline="text-before-edge" transform="translate(0,-5.6666669845581055)"><tspan x="0" y="0" dy="0" style="font-family: Arial, sans-serif; font-size: 10px; fill: black; font-weight: bold;">Brooklyn</tspan></text></g><g transform="translate(162.52662316000146,225.21809306098888)"><text text-anchor="middle" dominant-baseline="text-before-edge" transform="translate(0,-5.6666669845581055)"><tspan x="0" y="0" dy="0" style="font-family: Arial, sans-serif; font-size: 10px; fill: black; font-weight: bold;">Tuskegee</tspan></text></g><g transform="translate(158.11076156394773,256.5218722760236)"><text text-anchor="middle" dominant-baseline="text-before-edge" transform="translate(0,-5.6666669845581055)"><tspan x="0" y="0" dy="0" style="font-family: Arial, sans-serif; font-size: 10px; fill: black; font-weight: bold;">Buffalo</tspan></text></g><g transform="translate(630.2645843555417,311.5344455718553)"><text text-anchor="middle" dominant-baseline="text-before-edge" transform="translate(0,-5.6666669845581055)"><tspan x="0" y="0" dy="0" style="font-family: Arial, sans-serif; font-size: 10px; fill: black; font-weight: bold;">Manhattan Beach</tspan></text></g><g transform="translate(628.1662625216096,339.8689007037715)"><text text-anchor="middle" dominant-baseline="text-before-edge" transform="translate(0,-5.6666669845581055)"><tspan x="0" y="0" dy="0" style="font-family: Arial, sans-serif; font-size: 10px; fill: black; font-weight: bold;">Gary</tspan></text></g><g transform="translate(628.3245093225331,254.5687681430561)"><text text-anchor="middle" dominant-baseline="text-before-edge" transform="translate(0,-5.6666669845581055)"><tspan x="0" y="0" dy="0" style="font-family: Arial, sans-serif; font-size: 10px; fill: black; font-weight: bold;">Clarksdale</tspan></text></g><g transform="translate(621.1139180418214,216.87937270061607)"><text text-anchor="middle" dominant-baseline="text-before-edge" transform="translate(0,-5.6666669845581055)"><tspan x="0" y="0" dy="0" style="font-family: Arial, sans-serif; font-size: 10px; fill: black; font-weight: bold;">Richmond</tspan></text></g><g transform="translate(161.59793162145132,343.6329339719041)"><text text-anchor="middle" dominant-baseline="text-before-edge" transform="translate(0,-5.6666669845581055)"><tspan x="0" y="0" dy="0" style="font-family: Arial, sans-serif; font-size: 10px; fill: black; font-weight: bold;">Anaheim</tspan></text></g><g transform="translate(158.483373721171,309.71380703264504)"><text text-anchor="middle" dominant-baseline="text-before-edge" transform="translate(0,-5.6666669845581055)"><tspan x="0" y="0" dy="0" style="font-family: Arial, sans-serif; font-size: 10px; fill: black; font-weight: bold;">Hillsboro</tspan></text></g><g transform="translate(308.08491935665666,66.99147815438184)"><text text-anchor="middle" dominant-baseline="text-before-edge" transform="translate(0,-5.6666669845581055)"><tspan x="0" y="0" dy="0" style="font-family: Arial, sans-serif; font-size: 10px; fill: black; font-weight: bold;">Belleville</tspan></text></g><g transform="translate(411.4613219799855,59.66222948203796)"><text text-anchor="middle" dominant-baseline="text-before-edge" transform="translate(0,-5.6666669845581055)"><tspan x="0" y="0" dy="0" style="font-family: Arial, sans-serif; font-size: 10px; fill: black; font-weight: bold;">New York City</tspan></text></g><g transform="translate(563.5582469681774,458.98741625737347)"><text text-anchor="middle" dominant-baseline="text-before-edge" transform="translate(0,-5.6666669845581055)"><tspan x="0" y="0" dy="0" style="font-family: Arial, sans-serif; font-size: 10px; fill: black; font-weight: bold;">Searcy</tspan></text></g><g transform="translate(541.8738683162911,478.4052465793296)"><text text-anchor="middle" dominant-baseline="text-before-edge" transform="translate(0,-5.6666669845581055)"><tspan x="0" y="0" dy="0" style="font-family: Arial, sans-serif; font-size: 10px; fill: black; font-weight: bold;">Oklahoma City</tspan></text></g><g transform="translate(445.6259490432503,62.41116288256964)"><text text-anchor="middle" dominant-baseline="text-before-edge" transform="translate(0,-5.6666669845581055)"><tspan x="0" y="0" dy="0" style="font-family: Arial, sans-serif; font-size: 10px; fill: black; font-weight: bold;">Miami</tspan></text></g><g transform="translate(365.5668882233203,58.65735985703404)"><text text-anchor="middle" dominant-baseline="text-before-edge" transform="translate(0,-5.6666669845581055)"><tspan x="0" y="0" dy="0" style="font-family: Arial, sans-serif; font-size: 10px; fill: black; font-weight: bold;">Flushing</tspan></text></g><g transform="translate(219.33974716992097,455.9939457834787)"><text text-anchor="middle" dominant-baseline="text-before-edge" transform="translate(0,-5.6666669845581055)"><tspan x="0" y="0" dy="0" style="font-family: Arial, sans-serif; font-size: 10px; fill: black; font-weight: bold;">Miami</tspan></text></g><g transform="translate(630.3662249565311,298.4764318616864)"><text text-anchor="middle" dominant-baseline="text-before-edge" transform="translate(0,-5.6666669845581055)"><tspan x="0" y="0" dy="0" style="font-family: Arial, sans-serif; font-size: 10px; fill: black; font-weight: bold;">Lecompte</tspan></text></g><g transform="translate(317.7411595588629,520.0944001026204)"><text text-anchor="middle" dominant-baseline="text-before-edge" transform="translate(0,-5.6666669845581055)"><tspan x="0" y="0" dy="0" style="font-family: Arial, sans-serif; font-size: 10px; fill: black; font-weight: bold;">Barstow</tspan></text></g><g transform="translate(255.2356272635959,486.98710516527166)"><text text-anchor="middle" dominant-baseline="text-before-edge" transform="translate(0,-5.6666669845581055)"><tspan x="0" y="0" dy="0" style="font-family: Arial, sans-serif; font-size: 10px; fill: black; font-weight: bold;">Ventura</tspan></text></g></g></g></svg>